<svg width="216" height="68" viewBox="0 0 216 68" fill="none" xmlns="http://www.w3.org/2000/svg">
<path d="M115.563 67.406H92.5691C91.9209 67.406 91.395 66.8812 91.395 66.2344V22.4313H71.6616C71.0134 22.4313 70.4875 21.9065 70.4875 21.2597V1.17156C70.4809 0.524727 71.0101 0 71.6583 0H136.854C137.503 0 138.028 0.524727 138.028 1.17156V21.2564C138.028 21.9032 137.503 22.428 136.854 22.428H116.737V66.2311C116.737 66.8779 116.212 67.4027 115.563 67.4027V67.406ZM93.7431 65.0595H114.389V21.2597C114.389 20.6129 114.915 20.0881 115.563 20.0881H135.68V2.34642H72.8323V20.0848H92.5658C93.2139 20.0848 93.7398 20.6096 93.7398 21.2564V65.0595H93.7431Z" fill="#EC0C79"/>
<path d="M92.5691 21.2596V66.2311H115.563V21.2596H136.854V1.17151H71.6583V21.2563H92.5691V21.2596Z" fill="white"/>
<path d="M103.972 67.406H38.7758C38.1276 67.406 37.6017 66.8813 37.6017 66.2345V1.17163C37.6017 0.755812 37.8233 0.369692 38.1838 0.158481C38.5443 -0.0527297 38.9874 -0.0560299 39.3512 0.148581L71.8005 18.2995L103.387 0.155181C103.75 -0.0527297 104.197 -0.0527297 104.561 0.155181C104.924 0.366392 105.146 0.752512 105.146 1.17163V66.2312C105.146 66.878 104.62 67.4027 103.972 67.4027V67.406ZM39.9498 65.0596H102.795V3.20124L72.3891 20.6657C72.032 20.8703 71.5888 20.8736 71.2283 20.6723L39.9498 3.17484V65.0596Z" fill="#EC0C79"/>
<path d="M38.7758 66.2312H103.972V1.17163L71.8071 19.646L38.7758 1.17163V66.2312Z" fill="white"/>
<path d="M1.17402 67.5715C0.754019 67.5715 0.367088 67.3504 0.158741 66.9873C-0.0529136 66.6243 -0.0529136 66.1755 0.158741 65.8125L19.0721 33.2233L37.7605 0.594515C37.9688 0.228196 38.3591 0.00378418 38.7791 0.00378418C39.1991 0.00378418 39.5893 0.228196 39.7977 0.591214L58.6217 33.2299L77.5978 65.697C77.8095 66.06 77.8128 66.5088 77.6011 66.8718C77.3928 67.2349 76.9893 67.456 76.5825 67.4593L38.8485 67.4065L1.18394 67.5715H1.17733H1.17402ZM38.7824 3.53167L21.1092 34.3949L3.21781 65.2151L38.8386 65.06L74.5321 65.1095L56.5878 34.4015L38.7824 3.53167Z" fill="#EC0C79"/>
<path d="M38.7791 1.17493L57.6031 33.8136L76.5825 66.2873L38.8485 66.2345L1.17732 66.3995L20.0873 33.8103L38.7791 1.17493Z" fill="white"/>
<path fill-rule="evenodd" clip-rule="evenodd" d="M123.973 35.5362H129.566V36.5725H131.55V33.4175H130.564L127.214 25.9525H126.176L122.935 33.4175H121.976V36.5725H123.973V35.5362ZM126.688 29.982L128.051 33.3911H125.375L126.685 29.982H126.688ZM138.412 30.8731V35.5098H140.912V26.035H140.036L135.254 30.6916V26.0746H132.783V35.5098H133.647L138.415 30.8731H138.412ZM145.126 28.4606C145.126 28.1108 145.436 27.9095 145.962 27.9095C147.097 27.9095 147.123 29.5398 145.936 29.5398H145.301V31.5067H145.962C147.583 31.5067 147.583 33.6485 145.962 33.6485C145.261 33.6485 144.775 33.1766 144.775 32.434H142.655C142.655 34.5495 143.912 35.6814 145.966 35.6814C148.396 35.6814 149.613 34.3877 149.613 32.7179C149.613 31.6519 149.206 30.8995 148.251 30.3846C148.803 29.9655 149.074 29.256 149.074 28.6389C149.074 27.2693 148.036 25.9096 145.969 25.9096C144.322 25.9096 142.903 26.7182 142.983 28.4573H145.129L145.126 28.4606ZM157.415 35.5098H159.779V35.16L155.51 25.9558H154.471L150.218 35.16V35.5098H152.583L153.135 34.325H156.862L157.415 35.5098ZM156.079 32.2624H153.919L154.987 29.784L156.082 32.2624H156.079ZM161.969 35.5098H161.105V26.0746H163.576V30.6916L168.358 26.035H169.234V35.5098H166.734V30.8731L161.965 35.5098H161.969ZM164.561 23.1243C164.088 23.1507 163.629 23.2035 163.169 23.2596C163.209 24.7678 164.062 25.5631 165.52 25.5631C166.979 25.5631 167.829 24.7678 167.885 23.2596C167.425 23.2068 166.966 23.1507 166.493 23.1243C166.413 23.6919 166.046 23.8668 165.494 23.8668C164.942 23.8668 164.601 23.6259 164.561 23.1243ZM179.43 26.0746H176.96V29.4969H174.043V26.0746H171.572V35.5098H174.043V31.7212H176.96V35.5098H179.43V26.0746ZM127.73 46.2915L124.03 42.1959H123.137V51.6575H125.607V47.4531L127.604 49.5553H127.876L129.89 47.4531V51.6575H132.36V42.1959H131.497L127.73 46.2915ZM140.777 51.6542H143.141V51.3044L138.875 42.1002H137.837L133.584 51.3044V51.6542H135.948L136.501 50.4695H140.228L140.78 51.6542H140.777ZM139.441 48.4069H137.281L138.349 45.9284L139.444 48.4069H139.441ZM145.221 44.3774H142.9V42.2224H149.924V44.3774H147.616V51.6542H145.225V44.3774H145.221ZM157.322 42.2224H151.419V51.6575H157.441V49.5157H153.823V47.859H157.038V45.7172H153.823V44.384H157.322V42.2289V42.2224ZM161.942 51.6575V49.2451H163.685C168.209 49.2451 168.209 42.2356 163.685 42.2224H159.525V51.6575H161.942ZM163.672 47.0769H161.942V44.3807C162.494 44.3807 163.103 44.3675 163.672 44.3807C165.077 44.3939 164.995 47.0769 163.672 47.0769ZM174.545 47.0241V51.6608H177.046V42.186H176.169L171.387 46.8426V42.2256H168.917V51.6608H169.78L174.549 47.0241H174.545ZM185.472 51.6608H187.837V51.311L183.571 42.1068H182.532L178.279 51.311V51.6608H180.644L181.196 50.4761H184.923L185.475 51.6608H185.472ZM184.136 48.4135H181.977L183.045 45.935L184.139 48.4135H184.136ZM193.211 46.1364L195.641 51.6608H198.006V51.311L193.74 42.1068H192.701L188.449 51.311V51.6608H190.813L193.217 46.1364H193.211ZM199.246 42.2289V51.6641H203.407C207.931 51.6509 207.931 45.0473 203.407 45.0473H201.664V42.2289H199.246ZM203.393 47.2155C204.716 47.2155 204.799 49.4926 203.393 49.5058C202.825 49.519 202.219 49.5058 201.664 49.5058V47.2155H203.393ZM208.579 51.6641H210.996V42.2289H208.579V51.6641ZM124.545 60.5317V67.8086H126.936V60.5317H129.245V58.3767H122.221V60.5317H124.542H124.545ZM136.646 58.3767H130.743V67.8119H136.765V65.6701H133.147V64.0134H136.362V61.8716H133.147V60.5383H136.646V58.3833V58.3767ZM142.225 64.845L143.955 67.8086H146.561V67.4455L143.495 62.8088L146.223 58.7397V58.3767H143.723L142.212 60.8287H142.146L140.648 58.3767H138.134V58.7397L140.863 62.8088L137.81 67.4455V67.8086H140.416L142.146 64.845H142.225ZM155.811 58.3767H153.34V61.799H150.423V58.3767H147.953V67.8119H150.423V64.0233H153.34V67.8119H155.811V58.3767ZM167.346 63.1058C167.346 56.5814 157.65 56.5814 157.65 63.1058C157.65 69.6303 167.346 69.6435 167.346 63.1058ZM160.133 63.1058C160.133 59.7099 164.872 59.7099 164.872 63.1058C164.872 66.5017 160.133 66.5281 160.133 63.1058ZM172.746 62.2841L175.177 67.8086H177.542V67.4587L173.276 58.2546H172.237L167.984 67.4587V67.8086H170.349L172.753 62.2841H172.746ZM187.9 63.1058C187.9 56.5814 178.203 56.5814 178.203 63.1058C178.203 69.6303 187.9 69.6435 187.9 63.1058ZM180.687 63.1058C180.687 59.7099 185.426 59.7099 185.426 63.1058C185.426 66.5017 180.687 66.5281 180.687 63.1058ZM192.179 60.5317H195.608V58.3767H189.718V67.8119H192.176V60.535L192.179 60.5317ZM202.944 63.1718V67.8086H205.444V58.3338H204.567L199.785 62.9903V58.3734H197.315V67.8086H198.178L202.947 63.1718H202.944ZM213.506 63.1718V67.8086H216.007V58.3338H215.13L210.348 62.9903V58.3734H207.878V67.8086H208.741L213.51 63.1718H213.506Z" fill="white"/>
</svg>
